<svg xmlns="http://www.w3.org/2000/svg" xmlns:xlink="http://www.w3.org/1999/xlink" width="163" height="115" viewBox="0 0 163 115">
  <defs>
    <clipPath id="clip-Artboard_1">
      <rect width="163" height="115"/>
    </clipPath>
  </defs>
  <g id="Artboard_1" data-name="Artboard – 1" clip-path="url(#clip-Artboard_1)">
    <g id="Group_9265" data-name="Group 9265" transform="translate(20.2 -7.619)">
      <g id="Group_241" data-name="Group 241">
        <path id="Path_128" data-name="Path 128" d="M88.2,61.9a.878.878,0,0,0-.7.1c-.6.4-.5.7-.4.8a49.825,49.825,0,0,0,2.7,5.7c.1.1.2.2.3.2a9.878,9.878,0,0,0,.9-1.5A48.876,48.876,0,0,0,88.5,62C88.4,62,88.4,62,88.2,61.9Z" fill="#343a3d"/>
        <path id="Path_129" data-name="Path 129" d="M101.1,71.3a2.189,2.189,0,0,1,1-.9c2-1,3.8-1.8,5.5-2.6a2.561,2.561,0,0,1,3.4,1.3,3.33,3.33,0,0,1,.1,2.2h1.8V65.7H102.3V63a.367.367,0,0,1-.1.3l-.4,1-1.5,4.2a2.733,2.733,0,0,1-2.5,1.9,3.553,3.553,0,0,1-1-.2,1.612,1.612,0,0,1-.7-.4v1.1a5.359,5.359,0,0,1,1.1.5h3.9Z" fill="#343a3d"/>
        <path id="Path_130" data-name="Path 130" d="M97.4,61.3a2.49,2.49,0,0,1,3-1.6,2.334,2.334,0,0,1,2,2V53.9h8.4V48.3h-8.4V38H113V32.4H96.3V64.3A20.916,20.916,0,0,1,97.4,61.3Z" fill="#30373d"/>
        <path id="Path_131" data-name="Path 131" d="M108.7,69.4a.367.367,0,0,0-.3.1l-3.9,1.8h3.9c.3-.1.6-.3.9-.4a.751.751,0,0,0,.2-1C109.3,69.7,109,69.4,108.7,69.4Z" fill="#343a3d"/>
        <path id="Path_132" data-name="Path 132" d="M98.7,67.8c.5-1.4,1-2.8,1.5-4.1l.4-1v-.3h0c0-.7-.3-.8-.6-.9h-.2c-.3,0-.5.1-.7.5-.6,1.6-1.3,3.4-1.9,5.3h0a.926.926,0,0,0,.4,1.2A.946.946,0,0,0,98.7,67.8Z" fill="#343a3d"/>
        <path id="Path_133" data-name="Path 133" d="M38.3,31.8a9.044,9.044,0,0,0-6.9,2.6Q29,36.95,29,41.6V62.1q0,4.65,2.4,7.2a9.044,9.044,0,0,0,6.9,2.6,9.044,9.044,0,0,0,6.9-2.6q2.4-2.55,2.4-7.2V41.6q0-4.65-2.4-7.2A9.044,9.044,0,0,0,38.3,31.8Zm3.1,30.7c0,2.6-1.1,3.8-3.2,3.8S35,65,35,62.5V41.2c0-2.6,1.1-3.8,3.2-3.8s3.2,1.3,3.2,3.8Z" fill="#30373d"/>
        <path id="Path_134" data-name="Path 134" d="M86.7,60.4a2.581,2.581,0,0,1,2.1-.3,2.434,2.434,0,0,1,1.4,1c.6,1.1,1.2,2.2,1.7,3.3a17.914,17.914,0,0,0,.2-2.4V32.4H86V60.9A4.233,4.233,0,0,1,86.7,60.4Z" fill="#30373d"/>
        <path id="Path_135" data-name="Path 135" d="M80.5,69c1.8.6,3.7,1.3,5.9,2.2.1,0,.2.1.3.1a9.456,9.456,0,0,0,2-1.1,4.349,4.349,0,0,1-.6-.7h0c-.8-1.6-1.6-3.3-2.4-5a2.384,2.384,0,0,1-.6,1.1,3.389,3.389,0,0,1-4.6,0,4.562,4.562,0,0,1-.8-2.9V32.4H73.6V62.1c0,3.2.8,5.6,2.3,7.3a8.064,8.064,0,0,0,1.4,1.2A2.669,2.669,0,0,1,80.5,69Z" fill="#30373d"/>
        <path id="Path_136" data-name="Path 136" d="M79.1,71.2v.1a10.636,10.636,0,0,0,3.7.6h.5q-1.8-.6-3.3-1.2C79.7,70.6,79.3,70.9,79.1,71.2Z" fill="#343a3d"/>
        <path id="Path_137" data-name="Path 137" d="M68.9,69.2a1.779,1.779,0,0,1-.8-.7,11.489,11.489,0,0,0,1.7-6.4V41.6q0-4.65-2.4-7.2a9.044,9.044,0,0,0-6.9-2.6,9.044,9.044,0,0,0-6.9,2.6q-2.4,2.55-2.4,7.2V62.1q0,4.65,2.4,7.2a9.044,9.044,0,0,0,6.9,2.6,10.368,10.368,0,0,0,4.1-.7c.6,2.5,2.3,3.7,5.1,3.7h1.6V69.3h-.9A3.253,3.253,0,0,1,68.9,69.2Zm-5.2-6.7c0,2.6-1.1,3.8-3.2,3.8s-3.2-1.3-3.2-3.8V41.2c0-2.6,1.1-3.8,3.2-3.8s3.2,1.3,3.2,3.8Z" fill="#30373d"/>
        <path id="Path_138" data-name="Path 138" d="M7.8,38h6.4V71.3h6.1V38h6.4V32.4H7.8Z" fill="#30373d"/>
      </g>
      <path id="Path_139" data-name="Path 139" d="M120.5,89c-1.5-3.5-3.2-6.9-4.8-10.3a4.711,4.711,0,0,0-6.5-2.4,1.1,1.1,0,0,1-1.1.1,4.151,4.151,0,0,0-3.6.5,1.045,1.045,0,0,1-1.1.2,3.339,3.339,0,0,0-2.6.1c-.4.2-.7.1-.9-.4-.4-1-.9-1.9-1.4-2.9A4.305,4.305,0,0,0,92.8,72,4.413,4.413,0,0,0,90,77.5c.3.9.7,1.8,1.1,2.7,1.9,4,3.7,8,5.7,12.2H95a4.592,4.592,0,0,0-2.8.8,4.34,4.34,0,0,0,.7,7.5c3.3,1.6,6.6,3.3,9.8,5.1a10.925,10.925,0,0,0,5,1.6C116.7,108.1,125.1,99.2,120.5,89Zm-9.2,15.2a7.872,7.872,0,0,1-2.2.4,10.094,10.094,0,0,1-5.4-1.5,102.77,102.77,0,0,0-9.3-4.9c-.6-.3-1.1-.7-1.1-1.4,0-.9.6-1.4,1.7-1.5a25.053,25.053,0,0,1,5.5.6c.3,0,.6.2.9-.1.3-.4,0-.7-.1-1-2.7-5.8-5.5-11.7-8.2-17.5a1.707,1.707,0,0,1,.8-2.6c1.1-.5,1.8-.2,2.4,1,1.2,2.5,2.3,5,3.5,7.5.6,1.4,1.3,2.7,1.9,4.1.2.3.3.8.8.5.5-.2.2-.7.1-1-.7-1.4-1.4-2.8-2-4.3-.6-1.2-.3-2,.7-2.5,1.2-.6,1.9-.3,2.5,1,.7,1.6,1.5,3.1,2.2,4.7.2.4.3.9.8.7.6-.3.2-.8,0-1.1-.5-1.1-1.1-2.3-1.6-3.4-.6-1.3-.4-2.1.8-2.6,1.1-.5,1.9-.1,2.5,1.1.7,1.4,1.3,2.9,2,4.3.2.3.3.8.8.6s.2-.7.1-1c-.5-1.1-1-2.1-1.5-3.1-.5-1.1-.3-1.9.6-2.3a1.752,1.752,0,0,1,2.4.9c1.3,2.6,2.5,5.2,3.7,7.9.6,1.3,1.2,2.5,1.7,3.8C120.2,96.9,117.1,102.5,111.3,104.2ZM89,69.1a61.079,61.079,0,0,1-2.7-5.8,1.735,1.735,0,0,1,3-1.6,49.775,49.775,0,0,1,2.9,6.2v.2A2.2,2.2,0,0,1,91,69.7,1.521,1.521,0,0,1,89,69.1ZM87.4,81.3a1.508,1.508,0,0,1-.9,1.4c-1.8.8-3.6,1.7-5.4,2.5a1.539,1.539,0,0,1-2.1-.8,1.676,1.676,0,0,1,.5-2.2c1.9-1,3.9-1.9,5.8-2.7C86.3,79.1,87.4,80.1,87.4,81.3Zm8.9-14.2c.6-1.8,1.3-3.6,1.9-5.3a1.648,1.648,0,0,1,1.9-1.1,1.707,1.707,0,0,1,1.4,1.9,1.087,1.087,0,0,1-.1.5c-.6,1.7-1.2,3.5-1.9,5.2a1.761,1.761,0,0,1-2.3,1.2A1.889,1.889,0,0,1,96.3,67.1Zm5.5,6.2a1.517,1.517,0,0,1,.8-1.9c1.8-.9,3.6-1.8,5.5-2.6a1.692,1.692,0,0,1,2.2.9,1.609,1.609,0,0,1-.6,2.2c-1.8.9-3.7,1.8-5.6,2.6a1.087,1.087,0,0,1-.5.1A1.677,1.677,0,0,1,101.8,73.3ZM79,73.2a1.68,1.68,0,0,1-.7-2.1A1.823,1.823,0,0,1,80.2,70c2,.7,3.9,1.4,5.9,2.1a1.367,1.367,0,0,1,.9,1.4,1.691,1.691,0,0,1-2,1.8A47.617,47.617,0,0,1,79,73.2Z" fill="#f08372"/>
    </g>
  </g>
</svg>
